# xmcd
#
# Track frame offsets:
#	150
#	16719
#	31863
#	52002
#	63395
#	83681
#	103637
#	119672
#	146907
#	169098
#
# Disc length: 2431 seconds
#
# Revision: 1
# Processed by: cddbd v1.5.2PL0 Copyright (c) Steve Scherf et al.
# Submitted via: audiograbber 1.83.01
#
DISCID=82097d0a
DTITLE=Jeff Bridges - Jeff Bridges
DYEAR=2011
DGENRE=Country
TTITLE0=What A Little bit Of Love Can Do
TTITLE1=Falling Short
TTITLE2=Everything But Love
TTITLE3=Tumbling Vine
TTITLE4=Nothing Yet
TTITLE5=Blue Car
TTITLE6=Maybe I Missed The Point
TTITLE7=Slow Boat
TTITLE8=Either Way
TTITLE9=The Quest
EXTD=
EXTT0=
EXTT1=
EXTT2=
EXTT3=
EXTT4=
EXTT5=
EXTT6=
EXTT7=
EXTT8=
EXTT9=
PLAYORDER=
